<?xml version="1.0" encoding="UTF-8"?>
<svg width="131px" height="40px" viewBox="0 0 131 40" version="1.1" xmlns="http://www.w3.org/2000/svg" xmlns:xlink="http://www.w3.org/1999/xlink">
    <title>ic_logo</title>
    <g id="Website" stroke="none" stroke-width="1" fill="none" fill-rule="evenodd">
        <g id="Artboard" transform="translate(-58.000000, -55.000000)">
            <g id="ic_logo_onboarding" transform="translate(58.000000, 55.000000)">
                <path d="M67.3066667,27.6177778 C65.1722222,28.7585556 62.7844444,29.3288889 60.1444444,29.3288889 C58.8077778,29.3288889 57.5777778,29.117 56.4533333,28.6933333 C55.3455556,28.2533333 54.3833333,27.6422222 53.5688889,26.86 C52.77,26.0614444 52.1433333,25.1081111 51.6866667,24 C51.23,22.8918889 51.0022222,21.6614444 51.0022222,20.3088889 C51.0022222,18.9236667 51.23,17.6688889 51.6866667,16.5444444 C52.1433333,15.4036667 52.77,14.4341111 53.5688889,13.6355556 C54.3833333,12.837 55.3455556,12.2258889 56.4533333,11.8022222 C57.5777778,11.3622222 58.8077778,11.1422222 60.1444444,11.1422222 C61.4644444,11.1422222 62.7033333,11.3052222 63.86,11.6311111 C65.0166667,11.9407778 66.0522222,12.503 66.9644444,13.3177778 L64.6911111,15.6155556 C64.1366667,15.0777778 63.4611111,14.6622222 62.6622222,14.3688889 C61.88,14.0755556 61.0488889,13.9288889 60.1688889,13.9288889 C59.2722222,13.9288889 58.4577778,14.0918889 57.7244444,14.4177778 C57.0077778,14.7274444 56.3877778,15.1674444 55.8666667,15.7377778 C55.3455556,16.2918889 54.9377778,16.9436667 54.6444444,17.6933333 C54.3677778,18.443 54.2288889,19.2496667 54.2288889,20.1133333 C54.2288889,21.0422222 54.3677778,21.8977778 54.6444444,22.68 C54.9377778,23.4622222 55.3455556,24.1385556 55.8666667,24.7088889 C56.3877778,25.2792222 57.0077778,25.7274444 57.7244444,26.0533333 C58.4577778,26.3792222 59.2722222,26.5422222 60.1688889,26.5422222 C60.9511111,26.5422222 61.6844444,26.4688889 62.3688889,26.3222222 C63.07,26.1755556 63.6888889,25.9474444 64.2266667,25.6377778 L64.2266667,21.5555556 L60.6822222,21.5555556 L60.6822222,18.7688889 L67.3066667,18.7688889 L67.3066667,27.6177778 Z M78.0211111,27.2755556 L77.9477778,27.2755556 C77.5244444,27.9436667 76.9866667,28.4325556 76.3344444,28.7422222 C75.6822222,29.0355556 74.9655556,29.1822222 74.1833333,29.1822222 C73.6455556,29.1822222 73.1155556,29.1088889 72.5944444,28.9622222 C72.0888889,28.8155556 71.6333333,28.5955556 71.2255556,28.3022222 C70.8344444,28.0088889 70.5166667,27.6422222 70.2722222,27.2022222 C70.0277778,26.7622222 69.9055556,26.2488889 69.9055556,25.6622222 C69.9055556,25.0266667 70.02,24.4888889 70.2477778,24.0488889 C70.4755556,23.5925556 70.7777778,23.2177778 71.1522222,22.9244444 C71.5433333,22.6147778 71.9911111,22.3703333 72.4966667,22.1911111 C73.0022222,22.0118889 73.5233333,21.8814444 74.0611111,21.8 C74.6155556,21.7022222 75.1688889,21.6452222 75.7233333,21.6288889 C76.2777778,21.5963333 76.7988889,21.58 77.2877778,21.58 L78.0211111,21.58 L78.0211111,21.2622222 C78.0211111,20.5288889 77.7688889,19.983 77.2633333,19.6244444 C76.7577778,19.2496667 76.1144444,19.0622222 75.3322222,19.0622222 C74.7133333,19.0622222 74.1344444,19.1763333 73.5966667,19.4044444 C73.0588889,19.6163333 72.5944444,19.9096667 72.2033333,20.2844444 L70.6633333,18.7444444 C71.3155556,18.0763333 72.0733333,17.5955556 72.9366667,17.3022222 C73.8166667,17.0088889 74.7211111,16.8622222 75.65,16.8622222 C76.4811111,16.8622222 77.1822222,16.96 77.7522222,17.1555556 C78.3222222,17.3347778 78.7955556,17.5711111 79.17,17.8644444 C79.5444444,18.1577778 79.83,18.5 80.0255556,18.8911111 C80.2377778,19.2658889 80.3844444,19.6488889 80.4655556,20.04 C80.5633333,20.4311111 80.62,20.8141111 80.6366667,21.1888889 C80.6533333,21.5474444 80.6611111,21.8652222 80.6611111,22.1422222 L80.6611111,28.8888889 L78.0211111,28.8888889 L78.0211111,27.2755556 Z M77.85,23.6333333 L77.2388889,23.6333333 C76.8311111,23.6333333 76.3755556,23.6496667 75.87,23.6822222 C75.3644444,23.7147778 74.8844444,23.7963333 74.4277778,23.9266667 C73.9877778,24.0407778 73.6133333,24.22 73.3033333,24.4644444 C72.9933333,24.6925556 72.8388889,25.0185556 72.8388889,25.4422222 C72.8388889,25.7192222 72.8955556,25.9555556 73.01,26.1511111 C73.14,26.3303333 73.3033333,26.4852222 73.4988889,26.6155556 C73.6944444,26.7458889 73.9144444,26.8436667 74.1588889,26.9088889 C74.4033333,26.9577778 74.6477778,26.9822222 74.8922222,26.9822222 C75.9022222,26.9822222 76.6444444,26.7458889 77.1166667,26.2733333 C77.6055556,25.7844444 77.85,25.1244444 77.85,24.2933333 L77.85,23.6333333 Z M82.4477778,19.6488889 L82.4477778,17.1555556 L84.8677778,17.1555556 L84.8677778,13.7577778 L87.8011111,13.7577778 L87.8011111,17.1555556 L91.0277778,17.1555556 L91.0277778,19.6488889 L87.8011111,19.6488889 L87.8011111,24.7822222 C87.8011111,25.3688889 87.9077778,25.8333333 88.1188889,26.1755556 C88.3477778,26.5177778 88.7877778,26.6888889 89.4388889,26.6888889 C89.7,26.6888889 89.9855556,26.6644444 90.2944444,26.6155556 C90.6044444,26.5503333 90.8488889,26.4525556 91.0277778,26.3222222 L91.0277778,28.7911111 C90.7188889,28.9377778 90.3355556,29.0355556 89.8788889,29.0844444 C89.4388889,29.1496667 89.0477778,29.1822222 88.7055556,29.1822222 C87.9233333,29.1822222 87.28,29.0925556 86.7744444,28.9133333 C86.2855556,28.7503333 85.8944444,28.4977778 85.6011111,28.1555556 C85.3244444,27.797 85.1288889,27.357 85.0144444,26.8355556 C84.9166667,26.3141111 84.8677778,25.7111111 84.8677778,25.0266667 L84.8677778,19.6488889 L82.4477778,19.6488889 Z M92.7311111,23.0222222 C92.7311111,22.0933333 92.8944444,21.2541111 93.22,20.5044444 C93.5622222,19.7385556 94.0188889,19.0866667 94.5888889,18.5488889 C95.16,18.0111111 95.8355556,17.5955556 96.6177778,17.3022222 C97.4,17.0088889 98.2311111,16.8622222 99.1111111,16.8622222 C99.9911111,16.8622222 100.822222,17.0088889 101.604444,17.3022222 C102.386667,17.5955556 103.063333,18.0111111 103.633333,18.5488889 C104.204444,19.0866667 104.652222,19.7385556 104.977778,20.5044444 C105.32,21.2541111 105.491111,22.0933333 105.491111,23.0222222 C105.491111,23.9511111 105.32,24.7985556 104.977778,25.5644444 C104.652222,26.3141111 104.204444,26.9577778 103.633333,27.4955556 C103.063333,28.0333333 102.386667,28.4488889 101.604444,28.7422222 C100.822222,29.0355556 99.9911111,29.1822222 99.1111111,29.1822222 C98.2311111,29.1822222 97.4,29.0355556 96.6177778,28.7422222 C95.8355556,28.4488889 95.16,28.0333333 94.5888889,27.4955556 C94.0188889,26.9577778 93.5622222,26.3141111 93.22,25.5644444 C92.8944444,24.7985556 92.7311111,23.9511111 92.7311111,23.0222222 Z M95.6644444,23.0222222 C95.6644444,23.4785556 95.7377778,23.9185556 95.8844444,24.3422222 C96.0477778,24.7658889 96.2755556,25.1407778 96.5688889,25.4666667 C96.8788889,25.7925556 97.2455556,26.0533333 97.6688889,26.2488889 C98.0933333,26.4444444 98.5733333,26.5422222 99.1111111,26.5422222 C99.6488889,26.5422222 100.13,26.4444444 100.553333,26.2488889 C100.977778,26.0533333 101.335556,25.7925556 101.628889,25.4666667 C101.938889,25.1407778 102.166667,24.7658889 102.313333,24.3422222 C102.476667,23.9185556 102.557778,23.4785556 102.557778,23.0222222 C102.557778,22.5658889 102.476667,22.1258889 102.313333,21.7022222 C102.166667,21.2785556 101.938889,20.9036667 101.628889,20.5777778 C101.335556,20.2518889 100.977778,19.9911111 100.553333,19.7955556 C100.13,19.6 99.6488889,19.5022222 99.1111111,19.5022222 C98.5733333,19.5022222 98.0933333,19.6 97.6688889,19.7955556 C97.2455556,19.9911111 96.8788889,20.2518889 96.5688889,20.5777778 C96.2755556,20.9036667 96.0477778,21.2785556 95.8844444,21.7022222 C95.7377778,22.1258889 95.6644444,22.5658889 95.6644444,23.0222222 Z M110.584444,24.0488889 C110.682222,24.9288889 111.024444,25.6133333 111.611111,26.1022222 C112.197778,26.5911111 112.906667,26.8355556 113.737778,26.8355556 C114.471111,26.8355556 115.082222,26.6888889 115.571111,26.3955556 C116.076667,26.0858889 116.516667,25.703 116.891111,25.2466667 L118.993333,26.8355556 C118.308889,27.683 117.543333,28.2858889 116.695556,28.6444444 C115.847778,29.003 114.96,29.1822222 114.031111,29.1822222 C113.151111,29.1822222 112.32,29.0355556 111.537778,28.7422222 C110.755556,28.4488889 110.078889,28.0333333 109.508889,27.4955556 C108.938889,26.9577778 108.482222,26.3141111 108.14,25.5644444 C107.814444,24.7985556 107.651111,23.9511111 107.651111,23.0222222 C107.651111,22.0933333 107.814444,21.2541111 108.14,20.5044444 C108.482222,19.7385556 108.938889,19.0866667 109.508889,18.5488889 C110.078889,18.0111111 110.755556,17.5955556 111.537778,17.3022222 C112.32,17.0088889 113.151111,16.8622222 114.031111,16.8622222 C114.845556,16.8622222 115.587778,17.0088889 116.255556,17.3022222 C116.94,17.5792222 117.518889,17.9866667 117.991111,18.5244444 C118.48,19.0622222 118.854444,19.7303333 119.115556,20.5288889 C119.392222,21.3111111 119.531111,22.2155556 119.531111,23.2422222 L119.531111,24.0488889 L110.584444,24.0488889 Z M116.597778,21.8488889 C116.581111,20.9852222 116.312222,20.3088889 115.791111,19.82 C115.27,19.3147778 114.544444,19.0622222 113.615556,19.0622222 C112.735556,19.0622222 112.034444,19.3147778 111.513333,19.82 C111.007778,20.3252222 110.698889,21.0014444 110.584444,21.8488889 L116.597778,21.8488889 Z M128.532222,20.4066667 C127.961111,19.6081111 127.195556,19.2088889 126.234444,19.2088889 C125.843333,19.2088889 125.46,19.3066667 125.085556,19.5022222 C124.71,19.6977778 124.523333,20.0155556 124.523333,20.4555556 C124.523333,20.8141111 124.677778,21.0747778 124.987778,21.2377778 C125.296667,21.4007778 125.687778,21.5392222 126.161111,21.6533333 C126.633333,21.7674444 127.138889,21.8896667 127.676667,22.02 C128.23,22.1341111 128.743333,22.3214444 129.216667,22.5822222 C129.688889,22.8266667 130.08,23.1688889 130.39,23.6088889 C130.698889,24.0488889 130.854444,24.6518889 130.854444,25.4177778 C130.854444,26.1185556 130.698889,26.7133333 130.39,27.2022222 C130.096667,27.6747778 129.705556,28.0577778 129.216667,28.3511111 C128.743333,28.6444444 128.205556,28.8563333 127.603333,28.9866667 C127,29.117 126.396667,29.1822222 125.794444,29.1822222 C124.881111,29.1822222 124.042222,29.0518889 123.276667,28.7911111 C122.51,28.5303333 121.825556,28.0577778 121.223333,27.3733333 L123.178889,25.54 C123.553333,25.9636667 123.952222,26.3141111 124.376667,26.5911111 C124.816667,26.8518889 125.345556,26.9822222 125.965556,26.9822222 C126.176667,26.9822222 126.396667,26.9577778 126.625556,26.9088889 C126.853333,26.86 127.065556,26.7785556 127.261111,26.6644444 C127.456667,26.5503333 127.611111,26.4118889 127.725556,26.2488889 C127.855556,26.0696667 127.921111,25.8658889 127.921111,25.6377778 C127.921111,25.2303333 127.765556,24.9288889 127.456667,24.7333333 C127.146667,24.5377778 126.755556,24.383 126.283333,24.2688889 C125.81,24.1385556 125.296667,24.0244444 124.743333,23.9266667 C124.205556,23.8125556 123.7,23.6414444 123.227778,23.4133333 C122.754444,23.1688889 122.363333,22.8347778 122.054444,22.4111111 C121.744444,21.9874444 121.59,21.4007778 121.59,20.6511111 C121.59,19.9992222 121.72,19.437 121.981111,18.9644444 C122.257778,18.4755556 122.616667,18.0763333 123.056667,17.7666667 C123.496667,17.457 124.001111,17.2288889 124.572222,17.0822222 C125.142222,16.9355556 125.721111,16.8622222 126.307778,16.8622222 C127.09,16.8622222 127.863333,17.0007778 128.63,17.2777778 C129.395556,17.5385556 130.014444,17.9947778 130.487778,18.6466667 L128.532222,20.4066667 Z" id="Shape" fill="#F76754" fill-rule="nonzero"></path>
                <g id="Group-2">
                    <path d="M39.6748889,0.325777778 C39.8881111,1.32933333 40.0003333,2.37033333 40.0003333,3.43744444 C40.0003333,11.6642222 33.3313333,18.3332222 25.1046667,18.3332222 C24.0371111,18.3332222 22.9957778,18.2208889 21.9918889,18.0075556 C21.7786667,17.0038889 21.6664444,15.9628889 21.6664444,14.8957778 C21.6664444,6.669 28.3354444,1.38161088e-14 36.5621111,1.38161088e-14 C37.6296667,1.38161088e-14 38.671,0.112333333 39.6748889,0.325777778 Z" id="Path" fill="#81C341"></path>
                    <path d="M19.9998889,31.9997778 C13.3725556,31.9997778 8,26.6272222 8,19.9998889 C8,13.3725556 13.3725556,8 19.9998889,8 L19.9998889,2.76322175e-14 C8.95422222,2.76322175e-14 3.15796771e-14,8.95422222 3.15796771e-14,19.9998889 C3.15796771e-14,31.0454444 8.95422222,39.9997778 19.9998889,39.9997778 C31.0454444,39.9997778 39.9997778,31.0454444 39.9997778,19.9998889 L31.9997778,19.9998889 C31.9997778,26.6272222 26.6272222,31.9997778 19.9998889,31.9997778 Z" id="Path" fill="#F76754"></path>
                </g>
            </g>
        </g>
    </g>
</svg>